{
  "accessors": [
    {
      "bufferView": 2,
      "componentType": 5126,
      "count": 65532,
      "max": [
        0.9999729990959167,
        0.9999989867210388,
        1.0
      ],
      "min": [
        -0.9999759793281555,
        -0.6249790191650391,
        -1.0
      ],
      "type": "VEC3"
    },
    {
      "bufferView": 2,
      "byteOffset": 786384,
      "componentType": 5126,
      "count": 65532,
      "max": [
        0.9999717473983765,
        0.9999942779541016,
        1.0
      ],
      "min": [
        -0.9999717473983765,
        -0.6250082850456238,
        -1.0
      ],
      "type": "VEC3"
    },
    {
      "bufferView": 3,
      "componentType": 5126,
      "count": 65532,
      "max": [
        1.0,
        0.9999963641166687,
        0.006723897065967321,
        1.0
      ],
      "min": [
        -1.0,
        -0.9999854564666748,
        -0.006721710320562124,
        1.0
      ],
      "type": "VEC4"
    },
    {
      "bufferView": 1,
      "componentType": 5126,
      "count": 65532,
      "max": [
        1.0000020265579224,
        1.0
      ],
      "min": [
        0.0,
        0.0
      ],
      "type": "VEC2"
    },
    {
      "bufferView": 0,
      "componentType": 5125,
      "count": 386955,
      "type": "SCALAR"
    },
    {
      "bufferView": 2,
      "byteOffset": 1572768,
      "componentType": 5126,
      "count": 42597,
      "max": [
        0.7806360125541687,
        0.8924239873886108,
        1.0
      ],
      "min": [
        -0.9999759793281555,
        -0.9999070167541504,
        -0.9984610080718994
      ],
      "type": "VEC3"
    },
    {
      "bufferView": 2,
      "byteOffset": 2083932,
      "componentType": 5126,
      "count": 42597,
      "max": [
        0.7806217074394226,
        0.8924182057380676,
        1.0
      ],
      "min": [
        -0.9999717473983765,
        -0.9999045133590698,
        -0.9984624981880188
      ],
      "type": "VEC3"
    },
    {
      "bufferView": 3,
      "byteOffset": 1048512,
      "componentType": 5126,
      "count": 42597,
      "max": [
        1.0,
        0.9999963641166687,
        0.006700587924569845,
        1.0
      ],
      "min": [
        -1.0,
        -0.9999776482582092,
        -0.006692764814943075,
        1.0
      ],
      "type": "VEC4"
    },
    {
      "bufferView": 1,
      "byteOffset": 524256,
      "componentType": 5126,
      "count": 42597,
      "max": [
        0.9957470297813416,
        1.0
      ],
      "min": [
        0.0,
        0.017659999430179596
      ],
      "type": "VEC2"
    },
    {
      "bufferView": 0,
      "byteOffset": 1547820,
      "componentType": 5125,
      "count": 250365,
      "type": "SCALAR"
    }
  ],
  "asset": {
    "extras": {
      "author": "GregoryDev (https://sketchfab.com/GregoryDevelopment)",
      "license": "CC-BY-4.0 (http://creativecommons.org/licenses/by/4.0/)",
      "source": "https://sketchfab.com/3d-models/earth-planet-model-cb680d38bee541a5ab4ef331e323fa2d",
      "title": "Earth Planet Model"
    },
    "generator": "Sketchfab-13.46.0",
    "version": "2.0"
  },
  "bufferViews": [
    {
      "buffer": 0,
      "byteLength": 2549280,
      "name": "floatBufferViews",
      "target": 34963
    },
    {
      "buffer": 0,
      "byteLength": 865032,
      "byteOffset": 2549280,
      "byteStride": 8,
      "name": "floatBufferViews",
      "target": 34962
    },
    {
      "buffer": 0,
      "byteLength": 2595096,
      "byteOffset": 3414312,
      "byteStride": 12,
      "name": "floatBufferViews",
      "target": 34962
    },
    {
      "buffer": 0,
      "byteLength": 1730064,
      "byteOffset": 6009408,
      "byteStride": 16,
      "name": "floatBufferViews",
      "target": 34962
    }
  ],
  "buffers": [
    {
      "byteLength": 7739472,
      "uri": "scene.bin"
    }
  ],
  "images": [
    {
      "uri": "textures/Material.001_baseColor.jpeg"
    },
    {
      "uri": "textures/Material.001_normal.png"
    }
  ],
  "materials": [
    {
      "doubleSided": true,
      "name": "Material.001",
      "normalTexture": {
        "index": 1
      },
      "pbrMetallicRoughness": {
        "baseColorTexture": {
          "index": 0
        },
        "metallicFactor": 0.0,
        "roughnessFactor": 0.6
      }
    }
  ],
  "meshes": [
    {
      "name": "Object_0",
      "primitives": [
        {
          "attributes": {
            "NORMAL": 1,
            "POSITION": 0,
            "TANGENT": 2,
            "TEXCOORD_0": 3
          },
          "indices": 4,
          "material": 0,
          "mode": 4
        }
      ]
    },
    {
      "name": "Object_1",
      "primitives": [
        {
          "attributes": {
            "NORMAL": 6,
            "POSITION": 5,
            "TANGENT": 7,
            "TEXCOORD_0": 8
          },
          "indices": 9,
          "material": 0,
          "mode": 4
        }
      ]
    }
  ],
  "nodes": [
    {
      "children": [
        1
      ],
      "matrix": [
        0.5220120549201965,
        0.0,
        0.0,
        0.0,
        0.0,
        1.1590996050085878e-16,
        -0.5220120549201965,
        0.0,
        0.0,
        0.5220120549201965,
        1.1590996050085878e-16,
        0.0,
        0.0,
        0.0,
        0.0,
        1.0
      ],
      "name": "Sketchfab_model"
    },
    {
      "children": [
        2,
        3
      ],
      "name": "earthmodel.obj.cleaner.materialmerger.gles"
    },
    {
      "mesh": 0,
      "name": "Object_2"
    },
    {
      "mesh": 1,
      "name": "Object_3"
    }
  ],
  "samplers": [
    {
      "magFilter": 9729,
      "minFilter": 9987,
      "wrapS": 10497,
      "wrapT": 10497
    }
  ],
  "scene": 0,
  "scenes": [
    {
      "name": "Sketchfab_Scene",
      "nodes": [
        0
      ]
    }
  ],
  "textures": [
    {
      "sampler": 0,
      "source": 0
    },
    {
      "sampler": 0,
      "source": 1
    }
  ]
}
