<svg xmlns="http://www.w3.org/2000/svg" version="1.1" xmlns:xlink="http://www.w3.org/1999/xlink" xmlns:svgjs="http://svgjs.dev/svgjs" width="1000" height="1403" viewBox="0 0 1000 1403"><g transform="matrix(1,0,0,1,1.260551325461961,0.5680185696803619)"><svg viewBox="0 0 176 247" data-background-color="#ffffff" preserveAspectRatio="xMidYMid meet" height="1403" width="1000" xmlns="http://www.w3.org/2000/svg" xmlns:xlink="http://www.w3.org/1999/xlink"><g id="tight-bounds" transform="matrix(1,0,0,1,-0.22185703328131012,-0.10000041818321392)"><svg viewBox="0 0 176.4437137549518 247.2" height="247.2" width="176.4437137549518"><g><svg viewBox="0 0 260.12361599999997 364.4366608861143" height="247.2" width="176.4437137549518"><g><svg viewBox="0 0 260.12361599999997 364.4366608861143" height="364.4366608861143" width="260.12361599999997"><g id="textblocktransform"><svg viewBox="0 0 260.12361599999997 364.4366608861143" height="364.4366608861143" width="260.12361599999997" id="textblock"><g><svg viewBox="0 0 260.12361599999997 245.67230399999997" height="245.67230399999997" width="260.12361599999997"><g transform="matrix(1,0,0,1,0,0)"><svg width="260.12361599999997" viewBox="1.7999999523162842 -25.5 27 25.5" height="245.67230399999997" data-palette-color="#ff851b"><path d="M28.8-19.2L28.8 0 22.5 0 22.5-17.4Q22.5-18.45 21.98-18.98 21.45-19.5 20.6-19.5L20.6-19.5Q19.6-19.5 19.03-18.9 18.45-18.3 18.45-17.1L18.45-17.1 18.45 0 12.15 0 12.15-17.4Q12.15-18.45 11.58-18.98 11-19.5 10.2-19.5L10.2-19.5Q9.3-19.5 8.7-18.9 8.1-18.3 8.1-17.1L8.1-17.1 8.1 0 1.8 0 1.8-24.8 8.1-24.8 8.1-22.4 9-22.4Q9.3-23.75 10.38-24.63 11.45-25.5 13.2-25.5L13.2-25.5Q14.85-25.5 16-24.63 17.15-23.75 17.55-22.4L17.55-22.4 18.45-22.4Q18.85-23.75 20.13-24.63 21.4-25.5 23.3-25.5L23.3-25.5Q25.8-25.5 27.3-23.83 28.8-22.15 28.8-19.2L28.8-19.2Z" opacity="1" transform="matrix(1,0,0,1,0,0)" fill="#ff851b" class="undefined-text-0" data-fill-palette-color="primary" id="text-0"></path></svg></g></svg></g><g transform="matrix(1,0,0,1,49.683610656,303.669638839104)"><svg viewBox="0 0 160.75639468799997 60.7670220470103" height="60.7670220470103" width="160.75639468799997"><g transform="matrix(1,0,0,1,0,0)"><svg width="160.75639468799997" viewBox="2.690000057220459 -37.54999923706055 99.44999694824219 37.599998474121094" height="60.7670220470103" data-palette-color="#ff851b"><path d="M31.93-37.55L31.93-8.91Q31.93-7.28 31.52-5.97 31.1-4.66 30.42-3.67 29.74-2.69 28.83-1.99 27.93-1.29 26.94-0.85 25.95-0.42 24.94-0.21 23.93 0 23.02 0L23.02 0 11.57 0Q9.94 0 8.64-0.42 7.35-0.83 6.36-1.53 5.37-2.22 4.68-3.13 3.98-4.03 3.54-5.02 3.1-6.01 2.89-7.02 2.69-8.03 2.69-8.91L2.69-8.91 2.69-17.5Q2.69-19.95 3.58-21.64 4.47-23.34 5.8-24.4 7.13-25.46 8.69-25.93 10.25-26.39 11.57-26.39L11.57-26.39 23.02-26.39 23.02-20.04 11.62-20.04Q10.35-20.04 9.69-19.4 9.03-18.75 9.03-17.5L9.03-17.5 9.03-8.96Q9.03-7.67 9.68-7.01 10.33-6.35 11.57-6.35L11.57-6.35 23.02-6.35Q24.32-6.35 24.95-7.01 25.59-7.67 25.59-8.91L25.59-8.91 25.59-37.55 31.93-37.55ZM66.38-17.65L66.38-17.65Q66.38-16.33 65.92-14.81 65.45-13.28 64.41-11.98 63.38-10.67 61.7-9.79 60.03-8.91 57.64-8.91L57.64-8.91 46.19-8.91 46.19-14.94 57.64-14.94Q58.93-14.94 59.64-15.73 60.35-16.53 60.35-17.7L60.35-17.7Q60.35-18.95 59.56-19.65 58.76-20.36 57.64-20.36L57.64-20.36 46.19-20.36Q44.89-20.36 44.19-19.57 43.48-18.77 43.48-17.6L43.48-17.6 43.48-8.74Q43.48-7.47 44.27-6.76 45.07-6.05 46.24-6.05L46.24-6.05 57.64-6.05 57.64 0 46.19 0Q44.87 0 43.34-0.46 41.82-0.93 40.51-1.97 39.21-3 38.33-4.68 37.45-6.35 37.45-8.74L37.45-8.74 37.45-17.65Q37.45-18.97 37.91-20.5 38.38-22.02 39.41-23.33 40.45-24.63 42.12-25.51 43.8-26.39 46.19-26.39L46.19-26.39 57.64-26.39Q58.96-26.39 60.48-25.93 62.01-25.46 63.32-24.43 64.62-23.39 65.5-21.72 66.38-20.04 66.38-17.65ZM95.41-26.39L102.14-26.39Q101.07-23.05 99.63-19.8 98.19-16.55 96.32-13.61 94.45-10.67 92.15-8.17 89.84-5.66 87.04-3.85 84.25-2.03 80.96-0.99 77.68 0.05 73.85 0.05L73.85 0.05Q73.19 0.05 72.6-0.2 72.02-0.44 71.58-0.87 71.14-1.29 70.89-1.87 70.65-2.44 70.65-3.1L70.65-3.1 70.65-26.39 77-26.39 77-6.54Q79.32-6.54 81.45-7.54 83.59-8.54 85.49-10.19 87.4-11.84 89.02-13.94 90.64-16.04 91.91-18.25 93.18-20.46 94.07-22.58 94.97-24.71 95.41-26.39L95.41-26.39Z" opacity="1" transform="matrix(1,0,0,1,0,0)" fill="#ff851b" class="undefined-text-1" data-fill-palette-color="secondary" id="text-1"></path></svg></g></svg></g></svg></g></svg></g></svg></g><defs></defs></svg><rect width="176.4437137549518" height="247.2" fill="none" stroke="none" visibility="hidden"></rect></g></svg></g></svg>