<svg xmlns="http://www.w3.org/2000/svg" version="1.1" xmlns:xlink="http://www.w3.org/1999/xlink" xmlns:svgjs="http://svgjs.dev/svgjs" width="1000" height="482" viewBox="0 0 1000 482"><g transform="matrix(1,0,0,1,-0.6060606060606233,0.45628793978690396)"><svg viewBox="0 0 396 191" data-background-color="#ffffff" preserveAspectRatio="xMidYMid meet" height="482" width="1000" xmlns="http://www.w3.org/2000/svg" xmlns:xlink="http://www.w3.org/1999/xlink"><g id="tight-bounds" transform="matrix(1,0,0,1,0.2400000000000091,-0.18081119605663787)"><svg viewBox="0 0 395.52 191.36162239211328" height="191.36162239211328" width="395.52"><g><svg viewBox="0 0 395.52 191.36162239211328" height="191.36162239211328" width="395.52"><g><svg viewBox="0 0 681.9631936243345 329.94939103878323" height="191.36162239211328" width="395.52"><g><svg viewBox="0 0 395.5199999999999 329.94939103878323" height="329.94939103878323" width="395.5199999999999"><g id="textblocktransform"><svg viewBox="0 0 395.5199999999999 329.94939103878323" height="329.94939103878323" width="395.5199999999999" id="textblock"><g><svg viewBox="0 0 395.5199999999999 177.9589353612167" height="177.9589353612167" width="395.5199999999999"><g transform="matrix(1,0,0,1,0,0)"><svg width="395.5199999999999" viewBox="4.25 -35.5 78.9 35.5" height="177.9589353612167" data-palette-color="#915eff"><path d="M39.45 0L34.95 0 34.95-27.1 23.25-6.25 20.5-6.25 8.75-27.1 8.75 0 4.25 0 4.25-35.5 9-35.5 21.85-12.45 34.75-35.5 39.45-35.5 39.45 0ZM83.15 0L78.65 0 78.65-27.1 66.95-6.25 64.2-6.25 52.45-27.1 52.45 0 47.95 0 47.95-35.5 52.7-35.5 65.55-12.45 78.45-35.5 83.15-35.5 83.15 0Z" opacity="1" transform="matrix(1,0,0,1,0,0)" fill="#915eff" class="undefined-text-0" data-fill-palette-color="primary" id="text-0"></path></svg></g></svg></g><g transform="matrix(1,0,0,1,169.12707579939377,219.9707689855513)"><svg viewBox="0 0 226.39292420060616 109.97862205323192" height="109.97862205323192" width="226.39292420060616"><g transform="matrix(1,0,0,1,0,0)"><svg width="226.39292420060616" viewBox="2.6 -38.15 79.15 38.449999999999996" height="109.97862205323192" data-palette-color="#915eff"><path d="M12.2 0.3L12.2 0.3Q8.95 0.3 6.83-1.1 4.7-2.5 3.65-5.48 2.6-8.45 2.6-13.15L2.6-13.15Q2.6-18.1 3.58-21.18 4.55-24.25 6.75-25.68 8.95-27.1 12.7-27.1L12.7-27.1Q14.8-27.1 16.88-26.65 18.95-26.2 20.5-25.65L20.5-25.65 20.5-38.15 25.5-38.15 25.5 0 21.4 0 20.5-2.65Q19.7-1.95 18.3-1.28 16.9-0.6 15.3-0.15 13.7 0.3 12.2 0.3ZM13.8-3.8L13.8-3.8Q15.85-3.8 17.53-4.45 19.2-5.1 20.5-5.8L20.5-5.8 20.5-22.05Q18.95-22.5 17.48-22.88 16-23.25 14.2-23.25L14.2-23.25Q11.85-23.25 10.4-22.4 8.95-21.55 8.3-19.4 7.65-17.25 7.65-13.4L7.65-13.4Q7.65-9.85 8.25-7.73 8.85-5.6 10.23-4.7 11.6-3.8 13.8-3.8ZM42.9 0.3L42.9 0.3Q38.65 0.3 36.12-0.95 33.6-2.2 32.52-5.18 31.45-8.15 31.45-13.4L31.45-13.4Q31.45-18.75 32.52-21.73 33.6-24.7 36.1-25.9 38.6-27.1 42.85-27.1L42.85-27.1Q46.55-27.1 48.82-26.33 51.1-25.55 52.17-23.58 53.25-21.6 53.25-18.1L53.25-18.1Q53.25-15.65 52.27-14.2 51.3-12.75 49.52-12.1 47.75-11.45 45.3-11.45L45.3-11.45 36.45-11.45Q36.5-8.55 37.12-6.83 37.75-5.1 39.37-4.33 41-3.55 44.15-3.55L44.15-3.55 52.5-3.55 52.5-0.55Q50.35-0.25 48.1 0.03 45.85 0.3 42.9 0.3ZM36.4-14.6L36.4-14.6 44.85-14.6Q46.85-14.6 47.8-15.35 48.75-16.1 48.75-18.1L48.75-18.1Q48.75-20.1 48.17-21.25 47.6-22.4 46.3-22.9 45-23.4 42.85-23.4L42.85-23.4Q40.4-23.4 38.97-22.65 37.55-21.9 36.97-20 36.4-18.1 36.4-14.6ZM71.69 0L65.89 0 56.2-26.75 61.34-26.75 68.89-4.65 76.59-26.75 81.75-26.75 71.69 0Z" opacity="1" transform="matrix(1,0,0,1,0,0)" fill="#915eff" class="undefined-text-1" data-fill-palette-color="secondary" id="text-1"></path></svg></g></svg></g></svg></g></svg></g><g transform="matrix(1,0,0,1,437.5318336243345,42.75901551939164)"><svg viewBox="0 0 244.43135999999996 244.43135999999996" height="244.43135999999996" width="244.43135999999996"><g data-palette-color="#915eff"><rect width="66.8112384" height="244.43135999999996" fill="#915eff" stroke="transparent" data-fill-palette-color="accent" x="0" fill-opacity="1"></rect><rect width="66.8112384" height="244.43135999999996" fill="#915eff" stroke="transparent" data-fill-palette-color="accent" x="81.47711999999999" fill-opacity="0.75"></rect><rect width="66.8112384" height="244.43135999999996" fill="#915eff" stroke="transparent" data-fill-palette-color="accent" x="162.95423999999997" fill-opacity="0.5"></rect></g></svg></g></svg></g></svg></g><defs></defs></svg><rect width="395.52" height="191.36162239211328" fill="none" stroke="none" visibility="hidden"></rect></g></svg></g></svg>