<svg xmlns="http://www.w3.org/2000/svg" width="541.051" height="548.059" viewBox="0 0 541.051 548.059"><path fill="none" d="M188 192h400v168H188z"/><path d="M410.16 378.508c-8.12 2.397-14.599 3.294-23.098 3.294-69.608 0-171.818-243.247-171.818-324.206 0-29.8 7.052-39.747 17.015-48.277-85.193 9.942-187.415 41.209-220.101 80.953C5.091 100.226.799 115.833.799 135.722c0 126.381 134.895 413.16 230.049 413.16 44.029.001 118.252-72.365 179.312-170.374M365.73.824c88.03 0 176.119 14.195 176.119 63.887 0 100.81-63.934 222.979-96.568 222.979-58.222 0-130.648-161.909-130.648-242.868 0-36.918 14.196-43.998 51.097-43.998" fill="#FF8700"/></svg>