{
  "accessors": [
    {
      "bufferView": 2,
      "componentType": 5126,
      "count": 30031,
      "max": [
        0.20879200100898743,
        0.8321890234947205,
        1.1112010478973389
      ],
      "min": [
        -2.39992094039917,
        0.5038480162620544,
        -0.6474149823188782
      ],
      "type": "VEC3"
    },
    {
      "bufferView": 2,
      "byteOffset": 360372,
      "componentType": 5126,
      "count": 30031,
      "max": [
        1.0,
        1.0,
        1.0
      ],
      "min": [
        -1.0,
        -1.0,
        -1.0
      ],
      "type": "VEC3"
    },
    {
      "bufferView": 3,
      "componentType": 5126,
      "count": 30031,
      "max": [
        1.0,
        1.0,
        1.0,
        1.0
      ],
      "min": [
        -1.0,
        -1.0,
        -1.0,
        -1.0
      ],
      "type": "VEC4"
    },
    {
      "bufferView": 1,
      "componentType": 5126,
      "count": 30031,
      "max": [
        0.9985899925231934,
        0.9906709790229797
      ],
      "min": [
        0.0,
        0.0
      ],
      "type": "VEC2"
    },
    {
      "bufferView": 0,
      "componentType": 5125,
      "count": 113637,
      "type": "SCALAR"
    },
    {
      "bufferView": 2,
      "byteOffset": 720744,
      "componentType": 5126,
      "count": 89,
      "max": [
        -0.06990800052881241,
        0.6523209810256958,
        0.9311169981956482
      ],
      "min": [
        -2.132978916168213,
        0.6523209810256958,
        -0.5258399844169617
      ],
      "type": "VEC3"
    },
    {
      "bufferView": 2,
      "byteOffset": 721812,
      "componentType": 5126,
      "count": 89,
      "max": [
        0.00039999998989515007,
        -1.0,
        -0.0
      ],
      "min": [
        -0.00039999998989515007,
        -1.0,
        -0.0
      ],
      "type": "VEC3"
    },
    {
      "bufferView": 1,
      "byteOffset": 240248,
      "componentType": 5126,
      "count": 89,
      "max": [
        0.9821029901504517,
        0.8284459710121155
      ],
      "min": [
        0.01321600005030632,
        0.14420999586582184
      ],
      "type": "VEC2"
    },
    {
      "bufferView": 0,
      "byteOffset": 454548,
      "componentType": 5125,
      "count": 264,
      "type": "SCALAR"
    }
  ],
  "asset": {
    "extras": {
      "author": "Bogdan Kuznetsov (https://sketchfab.com/kzn.bog)",
      "license": "CC-BY-4.0 (http://creativecommons.org/licenses/by/4.0/)",
      "source": "https://sketchfab.com/3d-models/sci-fi-display-27941cd9eba845f180a521839b479f15",
      "title": "Sci-fi Display"
    },
    "generator": "Sketchfab-14.86.0",
    "version": "2.0"
  },
  "bufferViews": [
    {
      "buffer": 0,
      "byteLength": 455604,
      "name": "floatBufferViews",
      "target": 34963
    },
    {
      "buffer": 0,
      "byteLength": 240960,
      "byteOffset": 455604,
      "byteStride": 8,
      "name": "floatBufferViews",
      "target": 34962
    },
    {
      "buffer": 0,
      "byteLength": 722880,
      "byteOffset": 696564,
      "byteStride": 12,
      "name": "floatBufferViews",
      "target": 34962
    },
    {
      "buffer": 0,
      "byteLength": 480496,
      "byteOffset": 1419444,
      "byteStride": 16,
      "name": "floatBufferViews",
      "target": 34962
    }
  ],
  "buffers": [
    {
      "byteLength": 1899940,
      "uri": "scene.bin"
    }
  ],
  "extensionsUsed": [
    "KHR_materials_clearcoat"
  ],
  "images": [
    {
      "uri": "textures/Basic_baseColor.jpeg"
    },
    {
      "uri": "textures/Basic_metallicRoughness.png"
    },
    {
      "uri": "textures/Basic_emissive.jpeg"
    },
    {
      "uri": "textures/Basic_normal.jpeg"
    }
  ],
  "materials": [
    {
      "doubleSided": true,
      "emissiveFactor": [
        1.0,
        1.0,
        1.0
      ],
      "emissiveTexture": {
        "index": 2
      },
      "name": "Basic",
      "normalTexture": {
        "index": 3
      },
      "pbrMetallicRoughness": {
        "baseColorTexture": {
          "index": 0
        },
        "metallicRoughnessTexture": {
          "index": 1
        }
      }
    },
    {
      "doubleSided": true,
      "extensions": {
        "KHR_materials_clearcoat": {
          "clearcoatFactor": 1.0,
          "clearcoatRoughnessFactor": 0.04
        }
      },
      "name": "TD_Checker",
      "pbrMetallicRoughness": {
        "baseColorFactor": [
          0.009451510839721008,
          0.009451510839721008,
          0.009451510839721008,
          1.0
        ],
        "metallicFactor": 0.0,
        "roughnessFactor": 0.2667720802118129
      }
    }
  ],
  "meshes": [
    {
      "name": "Object_0",
      "primitives": [
        {
          "attributes": {
            "NORMAL": 1,
            "POSITION": 0,
            "TANGENT": 2,
            "TEXCOORD_0": 3
          },
          "indices": 4,
          "material": 0,
          "mode": 4
        }
      ]
    },
    {
      "name": "Object_1",
      "primitives": [
        {
          "attributes": {
            "NORMAL": 6,
            "POSITION": 5,
            "TEXCOORD_0": 7
          },
          "indices": 8,
          "material": 1,
          "mode": 4
        }
      ]
    }
  ],
  "nodes": [
    {
      "children": [
        1
      ],
      "matrix": [
        1.0,
        0.0,
        0.0,
        0.0,
        0.0,
        2.220446049250313e-16,
        -1.0,
        0.0,
        0.0,
        1.0,
        2.220446049250313e-16,
        0.0,
        0.0,
        0.0,
        0.0,
        1.0
      ],
      "name": "Sketchfab_model"
    },
    {
      "children": [
        2,
        3
      ],
      "name": "panel_6_fix.obj.cleaner.materialmerger.gles"
    },
    {
      "mesh": 0,
      "name": "Object_2"
    },
    {
      "mesh": 1,
      "name": "Object_3"
    }
  ],
  "samplers": [
    {
      "magFilter": 9729,
      "minFilter": 9987,
      "wrapS": 10497,
      "wrapT": 10497
    }
  ],
  "scene": 0,
  "scenes": [
    {
      "name": "Sketchfab_Scene",
      "nodes": [
        0
      ]
    }
  ],
  "textures": [
    {
      "sampler": 0,
      "source": 0
    },
    {
      "sampler": 0,
      "source": 1
    },
    {
      "sampler": 0,
      "source": 2
    },
    {
      "sampler": 0,
      "source": 3
    }
  ]
}
